<?xml version="1.0" encoding="utf-8"?>
<!-- Generator: Adobe Illustrator 27.5.0, SVG Export Plug-In . SVG Version: 6.00 Build 0)  -->
<svg version="1.1" id="Capa_1" xmlns="http://www.w3.org/2000/svg" xmlns:xlink="http://www.w3.org/1999/xlink" x="0px" y="0px"
	 viewBox="0 0 425.196 383.174" style="enable-background:new 0 0 425.196 383.174;" xml:space="preserve">
<rect x="0" style="fill:#ffffff;" width="425.196" height="383.174"/>
<g>
	<path style="fill:#BCBEC0;" d="M309.962,329.848c-8.753,0-17.166,0.255-25.043,0.717c-7.705-6.876-55.522-12.17-113.395-12.17
		c-63.24,0-114.507,6.32-114.507,14.12c0,7.799,51.267,14.122,114.507,14.122c21.536,0,41.677-0.734,58.884-2.01
		c1.939,7.496,36.81,13.464,79.553,13.464c43.989,0,79.647-6.321,79.647-14.12S353.951,329.848,309.962,329.848z"/>
	<g>
		<g>
			<path style="fill:#AB89BF;" d="M271.455,187.21c-1.076,0-2.06-0.674-2.432-1.716L252.272,138.5l-98.441,7.17
				c-0.063,0.005-0.125,0.007-0.188,0.007c-4.741,0-8.607-3.812-8.696-8.53l-10.066-85.653c-0.012-0.101-0.018-0.201-0.018-0.302
				c0-4.792,3.9-8.691,8.695-8.691c0.055,0,0.109,0.002,0.164,0.005l139.027,8.824c4.753,0.048,8.605,3.929,8.605,8.691v67.568
				c0,4.759-3.845,8.637-8.593,8.691l-8.723,0.635v47.712c0,1.257-0.905,2.331-2.143,2.545
				C271.748,187.197,271.601,187.21,271.455,187.21z"/>
			<path style="fill:#5C1F5B;" d="M143.559,45.083l139.101,8.828c3.376,0,6.112,2.734,6.112,6.109v67.568
				c0,3.375-2.735,6.109-6.112,6.109l-11.204,0.814v50.114l-17.411-48.846l-100.402,7.313c-3.376,0-6.114-2.734-6.114-6.111
				l-10.082-85.791C137.447,47.817,140.183,45.083,143.559,45.083 M143.559,39.917c-6.218,0-11.277,5.058-11.277,11.274
				c0,0.201,0.012,0.402,0.035,0.603l10.052,85.536c0.185,6.059,5.171,10.93,11.275,10.93c0.125,0,0.251-0.005,0.376-0.014
				l96.48-7.027l16.091,45.143c0.743,2.084,2.712,3.432,4.863,3.432c0.292,0,0.587-0.024,0.883-0.076
				c2.477-0.428,4.286-2.576,4.286-5.09v-45.311l6.254-0.454c6.119-0.116,11.062-5.128,11.062-11.273V60.021
				c0-6.154-4.957-11.173-11.088-11.273l-138.963-8.819C143.777,39.921,143.669,39.917,143.559,39.917L143.559,39.917z"/>
		</g>
		
			<path style="fill:none;stroke:#FFFFFF;stroke-width:5.1658;stroke-linecap:round;stroke-linejoin:round;stroke-miterlimit:10;" d="
			M168.287,54.158l-16.74-1.064c-2.989,0-5.41,2.424-5.41,5.413l4.908,41.755"/>
		<g>
			<path style="fill:#A67FB9;" d="M282.66,53.911l-9.674-0.615v60.541c0,3.375-2.737,6.109-6.114,6.109l-7.69,0.56l0,0l-0.684,0.051
				l-2.828,0.207l0,0l-109.112,7.945l0.971,8.273c0,3.377,2.738,6.111,6.114,6.111l100.402-7.313l1.625,4.551l15.786,44.295v-50.114
				l11.204-0.814c3.376,0,6.112-2.734,6.112-6.109V60.021C288.772,56.646,286.037,53.911,282.66,53.911z"/>
		</g>
		<g>
			<g>
				<path style="fill:#9C77B5;" d="M282.66,53.911l-2.801-0.179v67.487c0,3.378-2.737,6.111-6.112,6.111l-11.204,0.817v31.475
					l8.913,25.004v-50.114l11.204-0.814c3.376,0,6.112-2.734,6.112-6.109V60.021C288.772,56.646,286.037,53.911,282.66,53.911z"/>
			</g>
		</g>
	</g>
	<g>
		<g>
			<g>
				<path style="fill:#7FA3D5;" d="M114.184,289.604c-1.232,0-2.293-0.87-2.533-2.079L93.77,197.674
					c-0.151-0.758,0.046-1.545,0.537-2.143c0.491-0.598,1.223-0.944,1.997-0.944h157.75c1.232,0,2.293,0.87,2.533,2.079
					l17.881,89.852c0.151,0.758-0.046,1.545-0.537,2.143c-0.491,0.598-1.223,0.944-1.997,0.944H114.184z"/>
				<path style="fill:#5C1F5B;" d="M254.053,197.17l17.881,89.852h-157.75L96.303,197.17H254.053 M254.053,192.004H96.303
					c-1.547,0-3.012,0.693-3.993,1.889c-0.981,1.196-1.375,2.769-1.073,4.285l17.881,89.852c0.481,2.417,2.602,4.158,5.066,4.158
					h157.75c1.547,0,3.012-0.693,3.993-1.889c0.981-1.196,1.375-2.768,1.073-4.285l-17.881-89.852
					C258.639,193.745,256.518,192.004,254.053,192.004L254.053,192.004z"/>
			</g>
			<polygon style="fill:#5086B5;" points="254.053,197.17 233.922,197.17 248.393,269.885 110.774,269.885 114.184,287.022 
				271.934,287.022 			"/>
			<g>
				
					<line style="fill:#7FA3D5;stroke:#5C1F5B;stroke-width:5.1658;stroke-linecap:round;stroke-linejoin:round;stroke-miterlimit:10;" x1="102.021" y1="224.961" x2="258.099" y2="224.961"/>
				
					<line style="fill:#7FA3D5;stroke:#5C1F5B;stroke-width:5.1658;stroke-linecap:round;stroke-linejoin:round;stroke-miterlimit:10;" x1="108.468" y1="259.23" x2="266.218" y2="259.23"/>
			</g>
		</g>
		
			<polyline style="fill:none;stroke:#5C1F5B;stroke-width:5.1658;stroke-linecap:round;stroke-linejoin:round;stroke-miterlimit:10;" points="
			114.626,309.404 108.872,281.306 86.35,167.646 48.837,167.145 		"/>
		<g>
			
				<path style="fill:#7FA3D5;stroke:#5C1F5B;stroke-width:5.1658;stroke-linecap:round;stroke-linejoin:round;stroke-miterlimit:10;" d="
				M67.397,173.713c-0.025,0-0.05,0-0.076,0l-25.551-0.309c-3.456-0.043-6.225-2.88-6.183-6.336c0.041-3.458,2.896-6.346,6.334-6.18
				l25.549,0.306c3.455,0.042,6.225,2.878,6.185,6.333C73.612,170.958,70.817,173.713,67.397,173.713z"/>
		</g>
		
			<line style="fill:none;stroke:#5C1F5B;stroke-width:5.1658;stroke-linecap:round;stroke-linejoin:round;stroke-miterlimit:10;" x1="114.626" y1="309.374" x2="265.719" y2="308.733"/>
		<g>
			<g>
				<path style="fill:#D8D2E9;" d="M140.648,335.098c-7.804,0-14.153-6.35-14.153-14.153c0-7.804,6.349-14.153,14.153-14.153
					c7.805,0,14.155,6.35,14.155,14.153C154.804,328.748,148.454,335.098,140.648,335.098z"/>
				<path style="fill:#5C1F5B;" d="M140.648,309.374c6.392,0,11.572,5.181,11.572,11.57c0,6.389-5.181,11.57-11.572,11.57
					c-6.389,0-11.57-5.182-11.57-11.57C129.078,314.555,134.259,309.374,140.648,309.374 M140.648,304.208
					c-9.229,0-16.736,7.508-16.736,16.736c0,9.229,7.508,16.736,16.736,16.736c9.23,0,16.738-7.508,16.738-16.736
					C157.387,311.716,149.878,304.208,140.648,304.208L140.648,304.208z"/>
			</g>
			<g>
				<path style="fill:#5C1F5B;" d="M144.636,320.944c0,2.202-1.786,3.987-3.988,3.987c-2.2,0-3.985-1.785-3.985-3.987
					c0-2.202,1.786-3.988,3.985-3.988C142.851,316.956,144.636,318.742,144.636,320.944z"/>
			</g>
			<g>
				<path style="fill:#D8D2E9;" d="M245.921,335.098c-7.804,0-14.153-6.35-14.153-14.153c0-7.804,6.349-14.153,14.153-14.153
					c7.804,0,14.153,6.35,14.153,14.153C260.074,328.748,253.725,335.098,245.921,335.098z"/>
				<path style="fill:#5C1F5B;" d="M245.921,309.374c6.389,0,11.57,5.181,11.57,11.57c0,6.389-5.181,11.57-11.57,11.57
					c-6.392,0-11.57-5.182-11.57-11.57C234.351,314.555,239.529,309.374,245.921,309.374 M245.921,304.208
					c-9.228,0-16.735,7.508-16.735,16.736c0,9.229,7.507,16.736,16.735,16.736c9.229,0,16.736-7.508,16.736-16.736
					C262.657,311.716,255.15,304.208,245.921,304.208L245.921,304.208z"/>
			</g>
			<g>
				<path style="fill:#5C1F5B;" d="M249.906,320.944c0,2.202-1.783,3.987-3.985,3.987c-2.202,0-3.988-1.785-3.988-3.987
					c0-2.202,1.786-3.988,3.988-3.988C248.123,316.956,249.906,318.742,249.906,320.944z"/>
			</g>
		</g>
	</g>
	<g>
		<g>
			<g>
				<g>
					<g>
						<g>
							<path style="fill:#D8D2E9;" d="M255.184,344.546c-2.917,0-5.621-2.851-6.029-6.353l-10.285-88.333
								c-0.408-3.502,2.098-6.352,5.585-6.352h131.013c3.486,0,5.991,2.85,5.583,6.352l-10.285,88.333
								c-0.408,3.503-3.112,6.353-6.027,6.353H255.184z"/>
							<g>
								<path style="fill:#5C1F5B;" d="M375.195,246.091c2.062,0,3.545,1.688,3.312,3.769l-9.917,88.333
									c-0.234,2.083-1.835,3.77-3.575,3.77H254.91c-1.742,0-3.343-1.688-3.577-3.77l-9.916-88.333
									c-0.233-2.081,1.249-3.769,3.313-3.769H375.195 M375.744,240.925H244.182c-4.926,0-8.45,4.008-7.856,8.935l10.653,88.333
									c0.594,4.928,4.398,8.936,8.48,8.936h109.008c4.081,0,7.884-4.009,8.478-8.936l10.653-88.333
									C384.192,244.933,380.669,240.925,375.744,240.925L375.744,240.925z"/>
							</g>
						</g>
						<g>
							<path style="fill:#CCC6E3;" d="M375.195,246.091h-18.954l-5.245,69.63c-0.157,2.083-1.756,3.769-3.573,3.769h-98.189
								l2.1,18.703c0.234,2.083,1.835,3.77,3.577,3.77h110.105c1.741,0,3.341-1.688,3.575-3.77l9.917-88.333
								C378.74,247.778,377.257,246.091,375.195,246.091z"/>
						</g>
						<g>
							<path style="fill:#B9B0D7;" d="M375.195,246.091h-7.086l-7.585,80.136c-0.197,2.083-1.801,3.766-3.583,3.766H250.413
								l0.92,8.2c0.234,2.083,1.835,3.77,3.577,3.77h110.105c1.741,0,3.341-1.688,3.575-3.77l9.917-88.333
								C378.74,247.778,377.257,246.091,375.195,246.091z"/>
						</g>
						
							<line style="fill:none;stroke:#FFFFFF;stroke-width:5.1658;stroke-linecap:round;stroke-linejoin:round;stroke-miterlimit:10;" x1="249.277" y1="268.228" x2="253.687" y2="311.261"/>
					</g>
				</g>
				<g>
					
						<path style="fill:#979BCD;stroke:#5C1F5B;stroke-width:5.1658;stroke-linecap:round;stroke-linejoin:round;stroke-miterlimit:10;" d="
						M273.099,330.391c0.079,1.133-0.638,2.053-1.605,2.053h-4.651c-0.964,0-1.827-0.92-1.923-2.053l-4.474-52.651
						c-0.097-1.136,0.695-2.054,1.763-2.054h5.151c1.071,0,1.999,0.918,2.078,2.054L273.099,330.391z"/>
					
						<path style="fill:#979BCD;stroke:#5C1F5B;stroke-width:5.1658;stroke-linecap:round;stroke-linejoin:round;stroke-miterlimit:10;" d="
						M293.577,330.391c0.035,1.133-0.721,2.053-1.685,2.053h-4.651c-0.968,0-1.791-0.92-1.843-2.053l-2.44-52.651
						c-0.053-1.136,0.769-2.054,1.84-2.054h5.151c1.068,0,1.965,0.918,2.001,2.054L293.577,330.391z"/>
					
						<path style="fill:#979BCD;stroke:#5C1F5B;stroke-width:5.1658;stroke-linecap:round;stroke-linejoin:round;stroke-miterlimit:10;" d="
						M314.052,330.391c-0.009,1.133-0.798,2.053-1.765,2.053h-4.65c-0.965,0-1.756-0.92-1.765-2.053l-0.406-52.651
						c-0.009-1.136,0.852-2.054,1.921-2.054h5.15c1.07,0,1.93,0.918,1.921,2.054L314.052,330.391z"/>
					
						<path style="fill:#979BCD;stroke:#5C1F5B;stroke-width:5.1658;stroke-linecap:round;stroke-linejoin:round;stroke-miterlimit:10;" d="
						M334.529,330.391c-0.053,1.133-0.877,2.053-1.844,2.053h-4.651c-0.965,0-1.719-0.92-1.684-2.053l1.628-52.651
						c0.035-1.136,0.93-2.054,1.999-2.054h5.151c1.07,0,1.894,0.918,1.842,2.054L334.529,330.391z"/>
					
						<path style="fill:#979BCD;stroke:#5C1F5B;stroke-width:5.1658;stroke-linecap:round;stroke-linejoin:round;stroke-miterlimit:10;" d="
						M355.004,330.391c-0.096,1.133-0.956,2.053-1.922,2.053h-4.651c-0.965,0-1.684-0.92-1.605-2.053l3.662-52.651
						c0.079-1.136,1.01-2.054,2.079-2.054h5.151c1.07,0,1.858,0.918,1.761,2.054L355.004,330.391z"/>
				</g>
			</g>
		</g>
		<g>
			
				<path style="fill:#979BCD;stroke:#5C1F5B;stroke-width:5.1658;stroke-linecap:round;stroke-linejoin:round;stroke-miterlimit:10;" d="
				M263.697,248.943c-0.576,0.898-1.77,1.156-2.662,0.581l-4.312-2.77c-0.896-0.578-1.154-1.771-0.579-2.664l26.742-41.599
				c0.577-0.893,1.767-1.152,2.663-0.577l4.312,2.771c0.893,0.575,1.154,1.766,0.578,2.664L263.697,248.943z"/>
			
				<path style="fill:#979BCD;stroke:#5C1F5B;stroke-width:5.1658;stroke-linecap:round;stroke-linejoin:round;stroke-miterlimit:10;" d="
				M356.227,248.943c0.576,0.898,1.77,1.156,2.662,0.581l4.311-2.77c0.896-0.578,1.155-1.771,0.579-2.664l-26.741-41.599
				c-0.576-0.893-1.768-1.152-2.664-0.577l-4.311,2.771c-0.894,0.575-1.155,1.766-0.579,2.664L356.227,248.943z"/>
		</g>
		<g>
			<path style="fill:#979BCD;" d="M235.539,263.785c-3.377,0-6.125-2.749-6.125-6.127v-10.777c0-3.38,2.748-6.13,6.125-6.13h148.846
				c3.377,0,6.125,2.75,6.125,6.13v10.777c0,3.378-2.748,6.127-6.125,6.127H235.539z"/>
			<path style="fill:#5C1F5B;" d="M384.385,243.334c1.958,0,3.542,1.589,3.542,3.547v10.777c0,1.958-1.584,3.544-3.542,3.544
				H235.539c-1.955,0-3.542-1.586-3.542-3.544v-10.777c0-1.958,1.587-3.547,3.542-3.547H384.385 M384.385,238.168H235.539
				c-4.802,0-8.708,3.908-8.708,8.713v10.777c0,4.803,3.906,8.71,8.708,8.71h148.846c4.801,0,8.707-3.907,8.707-8.71v-10.777
				C393.092,242.076,389.187,238.168,384.385,238.168L384.385,238.168z"/>
		</g>
		<g>
			<path style="fill:#838DC6;" d="M384.385,243.334h-7.09v5.391c0,1.957-1.584,3.544-3.542,3.544H231.997v5.39
				c0,1.958,1.587,3.544,3.542,3.544h148.846c1.958,0,3.542-1.586,3.542-3.544v-10.777
				C387.927,244.923,386.343,243.334,384.385,243.334z"/>
		</g>
	</g>
</g>
</svg>
